Coordinates
version=1
nRows=9
nColumns=36
inDegrees=yes

Units are S.I. units (second, meters, Newtons, ...)
If the header above contains a line with 'inDegrees', this indicates whether rotational values are in degrees (yes) or radians (no).

endheader
time	pelvis_tilt	pelvis_list	pelvis_rotation	pelvis_tx	pelvis_ty	pelvis_tz	hip_flexion_r	hip_adduction_r	hip_rotation_r	knee_angle_r	knee_angle_r_beta	ankle_angle_r	subtalar_angle_r	mtp_angle_r	hip_flexion_l	hip_adduction_l	hip_rotation_l	knee_angle_l	knee_angle_l_beta	ankle_angle_l	subtalar_angle_l	mtp_angle_l	lumbar_extension	lumbar_bending	lumbar_rotation	arm_flex_r	arm_add_r	arm_rot_r	elbow_flex_r	pro_sup_r	arm_flex_l	arm_add_l	arm_rot_l	elbow_flex_l	pro_sup_l
      2.86666670	    -38.53624308	     -1.26663872	     -3.15713279	      0.09051230	      0.61172378	     -0.07245466	    105.76184302	     -5.29323814	      0.96426918	     97.02457215	      1.69339824	     39.40276021	      0.09255536	     -7.49999987	    107.92785010	    -11.25480390	      8.22459736	    100.78598743	      1.75904732	     39.17545244	      4.72953885	     -7.49999987	    -32.53298522	     -1.59997025	      0.26152992	     83.29358356	     -3.11785850	     27.44793422	     97.97262946	     98.83745657	     85.87415814	    -11.33205592	     27.73270802	     98.12238551	     85.59890563
      2.87083330	    -38.40308258	     -1.22842312	     -3.12410059	      0.09250246	      0.61279813	     -0.07497256	    105.30305744	     -5.28347694	      1.04749795	     96.78120070	      1.68915061	     39.55754996	      0.29462802	     -7.49999987	    107.46422146	    -11.19878605	      8.20478366	    100.58434418	      1.75552798	     39.26656129	      4.96226626	     -7.49999987	    -32.49622393	     -1.63044571	      0.33433135	     82.98813206	     -3.08991694	     27.37302703	     97.12715489	     97.91383854	     85.54441516	    -11.31996022	     27.40408391	     97.03498359	     84.33290819
      2.87500000	    -38.27152372	     -1.14588170	     -3.07316462	      0.09244536	      0.61556140	     -0.07508788	    104.83339022	     -5.29437923	      1.18548237	     96.45246163	      1.68341303	     39.59489812	      0.00104373	     -7.49999987	    106.91095439	    -11.04098622	      8.06372021	    100.24550914	      1.74961419	     39.20345538	      4.51575666	     -7.49999987	    -32.50861499	     -1.69361606	      0.32858021	     82.82709867	     -3.11060460	     27.21633388	     95.88657350	     96.68352261	     85.26209594	    -11.35016143	     27.26064878	     95.72511434	     83.06010246
      2.87916670	    -38.11211074	     -1.11311596	     -3.16839187	      0.09168032	      0.61744847	     -0.07719408	    104.43633741	     -5.26599917	      1.32011714	     96.11603199	      1.67754122	     39.59655385	      0.33586588	     -7.49999987	    106.54624969	    -11.03455915	      7.93408192	    100.08506252	      1.74681387	     39.41497710	      4.96641784	     -7.49999987	    -32.57812902	     -1.65351864	      0.50156513	     82.74594504	     -3.35930417	     26.87351944	     95.05414262	     95.70212121	     84.72950297	    -11.30342976	     27.15193535	     94.63121326	     81.88000420
      2.88333330	    -37.83939486	     -1.05971169	     -3.10014946	      0.09217897	      0.61958002	     -0.07651985	    104.02771345	     -5.30114173	      1.52427937	     95.88766886	      1.67355553	     39.45581509	      0.04838959	     -7.49999987	    105.98453308	    -10.85404678	      7.78558881	     99.76443739	      1.74121791	     39.30426616	      4.51130617	     -7.49999987	    -32.71148601	     -1.62912862	      0.42656210	     82.69423136	     -3.39116641	     26.68818876	     93.82371768	     94.32483424	     84.19950059	    -11.11302244	     27.16038187	     93.26476272	     80.56760150
      2.88750000	    -37.58757880	     -0.99144007	     -3.05868705	      0.09500584	      0.62338252	     -0.07799704	    103.41443057	     -5.23948074	      1.74385114	     95.50594725	      1.66689323	     39.32545448	     -0.34076627	     -7.49999987	    105.33477620	    -10.72764378	      7.61661047	     99.39814819	      1.73482496	     39.07839251	      3.99003492	     -7.49999987	    -32.81899017	     -1.63237417	      0.45174399	     82.48152870	     -3.49399221	     26.48722704	     92.72737820	     92.99142425	     83.57250555	    -10.91124954	     27.03872111	     92.07361693	     79.43675306
      2.89166670	    -37.56560773	     -0.87263827	     -3.15355179	      0.09443929	      0.62524005	     -0.07791794	    103.11985785	     -5.08018802	      1.91744087	     95.15405835	      1.66075161	     39.30801842	     -0.09522697	     -7.49999987	    104.98881596	    -10.85861839	      7.43210008	     99.09933445	      1.72960967	     39.25403148	      4.35855189	     -7.49999987	    -32.45613553	     -1.86410370	      1.42177067	     81.77462185	     -4.71168048	     26.19724239	     92.21052242	     92.71629477	     82.54620662	     -8.97339097	     26.53901998	     89.59315475	     77.57685145
      2.89583330	    -37.23541344	     -0.74472432	     -3.06307440	      0.09679672	      0.62712560	     -0.07914449	    102.56936800	     -5.06712677	      2.23857404	     94.90840354	      1.65646413	     39.14261096	     -0.24518850	     -7.49999987	    104.22525756	    -10.65559883	      7.18622474	     98.77646648	      1.72397456	     39.18834369	      3.74789900	     -7.49999987	    -32.61111905	     -1.79169238	      1.34230068	     81.51806842	     -4.71833537	     26.05216921	     90.74226603	     91.06424050	     81.76762409	     -8.68372553	     26.61737051	     88.20098703	     76.24825176
      2.90000000	    -37.26423766	     -0.54771504	     -3.01959949	      0.09988502	      0.62808290	     -0.07774750	    102.35732861	     -5.04201044	      2.46403462	     94.83987557	      1.65526809	     39.40003756	      0.41529892	     -7.49999987	    103.81828482	    -10.68496995	      6.88877950	     98.55186611	      1.72005455	     39.42936227	      3.92344343	     -7.49999987	    -32.09647206	     -1.85902798	      1.61940918	     80.77279015	     -5.24608848	     26.16612198	     89.59522380	     90.04585811	     80.58245879	     -8.05970835	     26.93598651	     86.43832015	     75.01393219
